<?xml version="1.0" standalone="no"?>
<!DOCTYPE svg PUBLIC "-//W3C//DTD SVG 1.1//EN" "http://www.w3.org/Graphics/SVG/1.1/DTD/svg11.dtd" >
<svg xmlns="http://www.w3.org/2000/svg" xmlns:xlink="http://www.w3.org/1999/xlink" version="1.1">
<metadata>
Created by FontForge 20170924 at Fri Nov 23 12:06:20 2001
 By www-data
Typeface (c) Cal henderson. 1999, 2001, 2002. All Rights Reserved
</metadata>
<defs>
<font id="SquareDance03" horiz-adv-x="618" >
  <font-face 
    font-family="SquareDance03"
    font-weight="400"
    font-stretch="normal"
    units-per-em="1000"
    panose-1="0 1 2 1 1 1 1 1 1 1"
    ascent="800"
    descent="-200"
    x-height="650"
    cap-height="910"
    bbox="0 -260 1022 912"
    underline-thickness="20"
    underline-position="-143"
    unicode-range="U+0008-00FF"
  />
<missing-glyph horiz-adv-x="1658" 
d="M256 0v667h766v-667h-766zM288 32h689v600h-689v-600z" />
    <glyph glyph-name=".notdef" horiz-adv-x="1658" 
d="M256 0v667h766v-667h-766zM288 32h689v600h-689v-600z" />
    <glyph glyph-name=".null" horiz-adv-x="0" 
 />
    <glyph glyph-name=".null" horiz-adv-x="0" 
 />
    <glyph glyph-name=".null" horiz-adv-x="0" 
 />
    <glyph glyph-name="nonmarkingreturn" unicode="&#x9;" horiz-adv-x="1024" 
 />
    <glyph glyph-name="nonmarkingreturn" unicode="&#xd;" horiz-adv-x="1024" 
 />
    <glyph glyph-name="space" unicode=" " horiz-adv-x="500" 
 />
    <glyph glyph-name="space" unicode="&#xa0;" horiz-adv-x="500" 
 />
    <glyph glyph-name="exclam" unicode="!" horiz-adv-x="375" 
d="M0 650h125v-390h-125v390zM0 130h125v-130h-125v130z" />
    <glyph glyph-name="quotedbl" unicode="&#x22;" horiz-adv-x="625" 
d="M250 910h125v-260h-125v260zM0 910h125v-260h-125v260z" />
    <glyph glyph-name="numbersign" unicode="#" horiz-adv-x="874" 
d="M375 650h125v-650h-125v650zM0 505h125v-130h-125v130zM500 260h125v-130h-125v130zM125 650h125v-650h-125v650zM250 260h125v-130h-125v130zM250 505h125v-130h-125v130zM500 505h125v-130h-125v130zM0 260h125v-130h-125v130z" />
    <glyph glyph-name="dollar" unicode="$" 
 />
    <glyph glyph-name="percent" unicode="%" 
 />
    <glyph glyph-name="ampersand" unicode="&#x26;" horiz-adv-x="874" 
d="M125 0v130h250v-130h-250zM125 520v130h250v-130h-250zM125 260v130h250v-130h-250zM0 390v130h125v-130h-125zM0 130v130h125v-130h-125zM375 130v130h125v-130h-125zM500 0v130h125v-130h-125zM375 390v130h125v-130h-125z" />
    <glyph glyph-name="quotesingle" unicode="'" horiz-adv-x="375" 
d="M0 910h125v-260h-125v260z" />
    <glyph glyph-name="parenleft" unicode="(" horiz-adv-x="499" 
d="M0 650h125v-650h-125v650zM125 780h125v-130h-125v130zM125 0h125v-130h-125v130z" />
    <glyph glyph-name="parenright" unicode=")" horiz-adv-x="499" 
d="M125 650h125v-650h-125v650zM0 780h125v-130h-125v130zM0 0h125v-130h-125v130z" />
    <glyph glyph-name="asterisk" unicode="*" horiz-adv-x="625" 
d="M250 130v130h125v-130h-125zM0 130v130h125v-130h-125zM250 390v130h125v-130h-125zM0 390v130h125v-130h-125zM125 260v390h125v-390h-125z" />
    <glyph glyph-name="plus" unicode="+" horiz-adv-x="625" 
d="M0 260v130h375v-130h-375zM130 520h125v-130h-125v130zM125 260h125v-130h-125v130z" />
    <glyph glyph-name="comma" unicode="," horiz-adv-x="499" 
d="M0 0h125v-130h-125v130zM125 130h125v-130h-125v130z" />
    <glyph glyph-name="hyphen" unicode="-" horiz-adv-x="625" 
d="M0 260v130h375v-130h-375z" />
    <glyph glyph-name="period" unicode="." horiz-adv-x="375" 
d="M0 130h125v-130h-125v130z" />
    <glyph glyph-name="slash" unicode="/" horiz-adv-x="625" 
d="M125 520h125v-390h-125v390zM250 780h125v-260h-125v260zM0 130h125v-260h-125v260z" />
    <glyph glyph-name="zero" unicode="0" horiz-adv-x="874" 
d="M0 130v390h125v-390h-125zM125 0v130h375v-130h-375zM125 520v130h375v-130h-375zM500 130v390h125v-390h-125zM375 390v130h125v-130h-125zM250 260v130h125v-130h-125zM125 130v130h125v-130h-125z" />
    <glyph glyph-name="one" unicode="1" horiz-adv-x="873" 
d="M250 130v520h125v-520h-125zM0 0v130h625v-130h-625zM125 390v130h125v-130h-125z" />
    <glyph glyph-name="two" unicode="2" horiz-adv-x="874" 
d="M125 520v130h375v-130h-375zM500 390v130h125v-130h-125zM125 130v130h125v-130h-125zM0 390v130h125v-130h-125zM0 0v130h625v-130h-625zM250 260v130h250v-130h-250z" />
    <glyph glyph-name="three" unicode="3" horiz-adv-x="873" 
d="M1 0v130h500v-130h-500zM1 520v130h500v-130h-500zM500 390v130h125v-130h-125zM125 260v130h375v-130h-375zM500 130v130h125v-130h-125z" />
    <glyph glyph-name="four" unicode="4" horiz-adv-x="874" 
d="M0 390v260h125v-260h-125zM125 260v130h375v-130h-375zM500 0v650h125v-650h-125z" />
    <glyph glyph-name="five" unicode="5" horiz-adv-x="874" 
d="M0 520v130h626v-130h-626zM0 0v130h500v-130h-500zM0 260v130h500v-130h-500zM0 390v130h125v-130h-125zM500 130v130h125v-130h-125z" />
    <glyph glyph-name="six" unicode="6" horiz-adv-x="874" 
d="M125 520v130h375v-130h-375zM500 130v130h125v-130h-125zM125 260v130h375v-130h-375zM125 0v130h375v-130h-375zM0 130v390h125v-390h-125z" />
    <glyph glyph-name="seven" unicode="7" horiz-adv-x="874" 
d="M500 390v130h125v-130h-125zM250 0v130h125v-130h-125zM375 130v260h125v-260h-125zM0 520v130h625v-130h-625z" />
    <glyph glyph-name="eight" unicode="8" horiz-adv-x="874" 
d="M125 520v130h375v-130h-375zM0 390v130h125v-130h-125zM125 260v130h375v-130h-375zM125 0v130h375v-130h-375zM500 390v130h125v-130h-125zM500 130v130h125v-130h-125zM0 130v130h125v-130h-125z" />
    <glyph glyph-name="nine" unicode="9" horiz-adv-x="874" 
d="M125 520v130h375v-130h-375zM0 390v130h125v-130h-125zM125 260v130h375v-130h-375zM125 0v130h375v-130h-375zM500 130v390h125v-390h-125z" />
    <glyph glyph-name="colon" unicode=":" horiz-adv-x="374" 
d="M0 520h125v-130h-125v130zM0 260h125v-130h-125v130z" />
    <glyph glyph-name="semicolon" unicode=";" horiz-adv-x="499" 
d="M125 520h125v-130h-125v130zM0 130h125v-130h-125v130zM125 260h125v-130h-125v130z" />
    <glyph glyph-name="less" unicode="&#x3c;" horiz-adv-x="624" 
d="M250 520v130h125v-130h-125zM0 260v130h125v-130h-125zM125 390v130h125v-130h-125zM125 130v130h125v-130h-125zM250 0v130h125v-130h-125z" />
    <glyph glyph-name="equal" unicode="=" horiz-adv-x="625" 
d="M0 390v130h375v-130h-375zM0 130v130h375v-130h-375z" />
    <glyph glyph-name="greater" unicode="&#x3e;" horiz-adv-x="624" 
d="M0 520v130h125v-130h-125zM250 260v130h125v-130h-125zM125 390v130h125v-130h-125zM125 130v130h125v-130h-125zM0 0v130h125v-130h-125z" />
    <glyph glyph-name="question" unicode="?" 
 />
    <glyph glyph-name="at" unicode="@" 
 />
    <glyph glyph-name="A" unicode="A" horiz-adv-x="874" 
d="M125 260v130h375v-130h-375zM500 0v520h125v-520h-125zM0 520v130h625v-130h-625zM125 0v130h375v-130h-375zM0 0v390h125v-390h-125z" />
    <glyph glyph-name="B" unicode="B" horiz-adv-x="874" 
d="M500 0v520h125v-520h-125zM0 520v130h625v-130h-625zM125 0v130h375v-130h-375zM0 0v520h125v-520h-125zM0 650v260h125v-260h-125z" />
    <glyph glyph-name="C" unicode="C" horiz-adv-x="874" 
d="M0 130v390h125v-390h-125zM0 0v130h625v-130h-625zM0 520v130h625v-130h-625zM500 390v130h125v-130h-125zM500 130v130h125v-130h-125z" />
    <glyph glyph-name="D" unicode="D" horiz-adv-x="874" 
d="M500 0v520h125v-520h-125zM0 520v130h625v-130h-625zM125 0v130h375v-130h-375zM0 0v520h125v-520h-125zM500 650v260h125v-260h-125z" />
    <glyph glyph-name="E" unicode="E" horiz-adv-x="874" 
d="M125 260v130h375v-130h-375zM0 130v520h125v-520h-125zM0 0v130h625v-130h-625zM125 520v130h375v-130h-375zM500 260v390h125v-390h-125z" />
    <glyph glyph-name="F" unicode="F" horiz-adv-x="499" 
d="M0 -1v782h125v-782h-125zM125 520v130h125v-130h-125zM125 780v130h125v-130h-125z" />
    <glyph glyph-name="G" unicode="G" horiz-adv-x="874" 
d="M500 0v520h125v-520h-125zM0 520v130h625v-130h-625zM125 0v130h375v-130h-375zM0 0v520h125v-520h-125zM500 -260v260h125v-260h-125zM1 -260v130h500v-130h-500z" />
    <glyph glyph-name="H" unicode="H" horiz-adv-x="874" 
d="M500 0v520h125v-520h-125zM0 520v130h625v-130h-625zM0 0v520h125v-520h-125zM0 650v260h125v-260h-125z" />
    <glyph glyph-name="I" unicode="I" horiz-adv-x="373" 
d="M0 0v650h125v-650h-125zM0 780v130h125v-130h-125z" />
    <glyph glyph-name="J" unicode="J" horiz-adv-x="499" 
d="M125 -130v782h125v-782h-125zM0 -260v130h125v-130h-125zM125 780v130h125v-130h-125z" />
    <glyph glyph-name="K" unicode="K" horiz-adv-x="874" 
d="M375 520v130h250v-130h-250zM125 250v130h125v-130h-125zM0 -1v912h125v-912h-125zM250 130v390h125v-390h-125zM375 0v130h250v-130h-250z" />
    <glyph glyph-name="L" unicode="L" horiz-adv-x="499" 
d="M125 0v130h125v-130h-125zM0 -1v912h125v-912h-125z" />
    <glyph glyph-name="M" unicode="M" horiz-adv-x="874" 
d="M0 0v520h125v-520h-125zM500 0v520h125v-520h-125zM250 0v520h125v-520h-125zM0 520v130h500v-130h-500z" />
    <glyph glyph-name="N" unicode="N" horiz-adv-x="874" 
d="M0 0v520h125v-520h-125zM500 0v520h125v-520h-125zM0 520v130h500v-130h-500z" />
    <glyph glyph-name="O" unicode="O" horiz-adv-x="874" 
d="M500 0v520h125v-520h-125zM0 520v130h625v-130h-625zM125 0v130h375v-130h-375zM0 0v520h125v-520h-125z" />
    <glyph glyph-name="P" unicode="P" horiz-adv-x="874" 
d="M500 0v520h125v-520h-125zM0 520v130h625v-130h-625zM125 0v130h375v-130h-375zM0 0v520h125v-520h-125zM0 -260v260h125v-260h-125z" />
    <glyph glyph-name="Q" unicode="Q" horiz-adv-x="874" 
d="M500 0v520h125v-520h-125zM0 520v130h625v-130h-625zM125 0v130h375v-130h-375zM0 0v520h125v-520h-125zM500 -260v260h125v-260h-125z" />
    <glyph glyph-name="R" unicode="R" horiz-adv-x="499" 
d="M0 0v650h125v-650h-125zM125 520v130h125v-130h-125z" />
    <glyph glyph-name="S" unicode="S" horiz-adv-x="874" 
d="M125 260v130h375v-130h-375zM500 0v390h125v-390h-125zM0 260v390h125v-390h-125zM125 520v130h500v-130h-500zM0 0v130h500v-130h-500z" />
    <glyph glyph-name="T" unicode="T" horiz-adv-x="500" 
d="M0 130v782h125v-782h-125zM125 520v130h125v-130h-125zM125 0v130h125v-130h-125z" />
    <glyph glyph-name="U" unicode="U" horiz-adv-x="874" 
d="M0 130v520h125v-520h-125zM500 130v520h125v-520h-125zM125 0v130h500v-130h-500z" />
    <glyph glyph-name="V" unicode="V" horiz-adv-x="874" 
d="M500 390v260h125v-260h-125zM375 130v260h125v-260h-125zM125 130v260h125v-260h-125zM0 390v260h125v-260h-125zM250 0v130h125v-130h-125z" />
    <glyph glyph-name="W" unicode="W" horiz-adv-x="874" 
d="M0 130v520h125v-520h-125zM500 130v520h125v-520h-125zM125 0v130h125v-130h-125zM375 0v130h125v-130h-125zM250 130v520h125v-520h-125z" />
    <glyph glyph-name="X" unicode="X" horiz-adv-x="874" 
d="M500 520v130h125v-130h-125zM375 130v130h125v-130h-125zM0 0v130h125v-130h-125zM375 390v130h125v-130h-125zM125 390v130h125v-130h-125zM125 130v130h125v-130h-125zM0 520v130h125v-130h-125zM500 0v130h125v-130h-125zM250 260v130h125v-130h-125z" />
    <glyph glyph-name="Y" unicode="Y" horiz-adv-x="874" 
d="M500 390v260h125v-260h-125zM250 -130v260h125v-260h-125zM0 390v260h125v-260h-125zM125 130v260h125v-260h-125zM375 130v260h125v-260h-125zM125 -260v130h125v-130h-125z" />
    <glyph glyph-name="Z" unicode="Z" horiz-adv-x="874" 
d="M375 390v130h125v-130h-125zM125 130v130h125v-130h-125zM250 260v130h125v-130h-125zM0 520v130h625v-130h-625zM0 0v130h625v-130h-625z" />
    <glyph glyph-name="bracketleft" unicode="[" horiz-adv-x="499" 
d="M0 780h125v-910h-125v910zM125 780h125v-130h-125v130zM125 0h125v-130h-125v130z" />
    <glyph glyph-name="backslash" unicode="\" horiz-adv-x="625" 
d="M125 520h125v-390h-125v390zM0 780h125v-260h-125v260zM250 130h125v-260h-125v260z" />
    <glyph glyph-name="bracketright" unicode="]" horiz-adv-x="499" 
d="M125 780h125v-910h-125v910zM0 780h125v-130h-125v130zM0 0h125v-130h-125v130z" />
    <glyph glyph-name="asciicircum" unicode="^" horiz-adv-x="625" 
d="M250 390v130h125v-130h-125zM0 390v130h125v-130h-125zM125 520v130h125v-130h-125z" />
    <glyph glyph-name="underscore" unicode="_" 
 />
    <glyph glyph-name="grave" unicode="`" 
 />
    <glyph glyph-name="a" unicode="a" horiz-adv-x="874" 
d="M125 260v130h375v-130h-375zM500 0v520h125v-520h-125zM0 520v130h625v-130h-625zM125 0v130h375v-130h-375zM0 0v390h125v-390h-125z" />
    <glyph glyph-name="b" unicode="b" horiz-adv-x="874" 
d="M500 0v520h125v-520h-125zM0 520v130h625v-130h-625zM125 0v130h375v-130h-375zM0 0v520h125v-520h-125zM0 650v260h125v-260h-125z" />
    <glyph glyph-name="c" unicode="c" horiz-adv-x="874" 
d="M0 130v390h125v-390h-125zM0 0v130h625v-130h-625zM0 520v130h625v-130h-625zM500 390v130h125v-130h-125zM500 130v130h125v-130h-125z" />
    <glyph glyph-name="d" unicode="d" horiz-adv-x="874" 
d="M500 0v520h125v-520h-125zM0 520v130h625v-130h-625zM125 0v130h375v-130h-375zM0 0v520h125v-520h-125zM500 650v260h125v-260h-125z" />
    <glyph glyph-name="e" unicode="e" horiz-adv-x="874" 
d="M125 260v130h375v-130h-375zM0 130v520h125v-520h-125zM0 0v130h625v-130h-625zM125 520v130h375v-130h-375zM500 260v390h125v-390h-125z" />
    <glyph glyph-name="f" unicode="f" horiz-adv-x="499" 
d="M0 -1v782h125v-782h-125zM125 520v130h125v-130h-125zM125 780v130h125v-130h-125z" />
    <glyph glyph-name="g" unicode="g" horiz-adv-x="874" 
d="M500 0v520h125v-520h-125zM0 520v130h625v-130h-625zM125 0v130h375v-130h-375zM0 0v520h125v-520h-125zM500 -260v260h125v-260h-125zM1 -260v130h500v-130h-500z" />
    <glyph glyph-name="h" unicode="h" horiz-adv-x="874" 
d="M500 0v520h125v-520h-125zM0 520v130h625v-130h-625zM0 0v520h125v-520h-125zM0 650v260h125v-260h-125z" />
    <glyph glyph-name="i" unicode="i" horiz-adv-x="373" 
d="M0 0v650h125v-650h-125zM0 780v130h125v-130h-125z" />
    <glyph glyph-name="j" unicode="j" horiz-adv-x="499" 
d="M125 -130v782h125v-782h-125zM0 -260v130h125v-130h-125zM125 780v130h125v-130h-125z" />
    <glyph glyph-name="k" unicode="k" horiz-adv-x="874" 
d="M375 520v130h250v-130h-250zM125 250v130h125v-130h-125zM0 -1v912h125v-912h-125zM250 130v390h125v-390h-125zM375 0v130h250v-130h-250z" />
    <glyph glyph-name="l" unicode="l" horiz-adv-x="499" 
d="M125 0v130h125v-130h-125zM0 -1v912h125v-912h-125z" />
    <glyph glyph-name="m" unicode="m" horiz-adv-x="874" 
d="M0 0v520h125v-520h-125zM500 0v520h125v-520h-125zM250 0v520h125v-520h-125zM0 520v130h500v-130h-500z" />
    <glyph glyph-name="n" unicode="n" horiz-adv-x="874" 
d="M0 0v520h125v-520h-125zM500 0v520h125v-520h-125zM0 520v130h500v-130h-500z" />
    <glyph glyph-name="o" unicode="o" horiz-adv-x="874" 
d="M500 0v520h125v-520h-125zM0 520v130h625v-130h-625zM125 0v130h375v-130h-375zM0 0v520h125v-520h-125z" />
    <glyph glyph-name="p" unicode="p" horiz-adv-x="874" 
d="M500 0v520h125v-520h-125zM0 520v130h625v-130h-625zM125 0v130h375v-130h-375zM0 0v520h125v-520h-125zM0 -260v260h125v-260h-125z" />
    <glyph glyph-name="q" unicode="q" horiz-adv-x="874" 
d="M500 0v520h125v-520h-125zM0 520v130h625v-130h-625zM125 0v130h375v-130h-375zM0 0v520h125v-520h-125zM500 -260v260h125v-260h-125z" />
    <glyph glyph-name="r" unicode="r" horiz-adv-x="499" 
d="M0 0v650h125v-650h-125zM125 520v130h125v-130h-125z" />
    <glyph glyph-name="s" unicode="s" horiz-adv-x="874" 
d="M125 260v130h375v-130h-375zM500 0v390h125v-390h-125zM0 260v390h125v-390h-125zM125 520v130h500v-130h-500zM0 0v130h500v-130h-500z" />
    <glyph glyph-name="t" unicode="t" horiz-adv-x="500" 
d="M0 130v782h125v-782h-125zM125 520v130h125v-130h-125zM125 0v130h125v-130h-125z" />
    <glyph glyph-name="u" unicode="u" horiz-adv-x="874" 
d="M0 130v520h125v-520h-125zM500 130v520h125v-520h-125zM125 0v130h500v-130h-500z" />
    <glyph glyph-name="v" unicode="v" horiz-adv-x="874" 
d="M500 390v260h125v-260h-125zM375 130v260h125v-260h-125zM125 130v260h125v-260h-125zM0 390v260h125v-260h-125zM250 0v130h125v-130h-125z" />
    <glyph glyph-name="w" unicode="w" horiz-adv-x="874" 
d="M0 130v520h125v-520h-125zM500 130v520h125v-520h-125zM125 0v130h125v-130h-125zM375 0v130h125v-130h-125zM250 130v520h125v-520h-125z" />
    <glyph glyph-name="x" unicode="x" horiz-adv-x="874" 
d="M500 520v130h125v-130h-125zM375 130v130h125v-130h-125zM0 0v130h125v-130h-125zM375 390v130h125v-130h-125zM125 390v130h125v-130h-125zM125 130v130h125v-130h-125zM0 520v130h125v-130h-125zM500 0v130h125v-130h-125zM250 260v130h125v-130h-125z" />
    <glyph glyph-name="y" unicode="y" horiz-adv-x="874" 
d="M500 390v260h125v-260h-125zM250 -130v260h125v-260h-125zM0 390v260h125v-260h-125zM125 130v260h125v-260h-125zM375 130v260h125v-260h-125zM125 -260v130h125v-130h-125z" />
    <glyph glyph-name="z" unicode="z" horiz-adv-x="874" 
d="M375 390v130h125v-130h-125zM125 130v130h125v-130h-125zM250 260v130h125v-130h-125zM0 520v130h625v-130h-625zM0 0v130h625v-130h-625z" />
    <glyph glyph-name="braceleft" unicode="{" horiz-adv-x="625" 
d="M250 650v130h125v-130h-125zM0 260v130h125v-130h-125zM125 390v260h125v-260h-125zM125 0v260h125v-260h-125zM250 -130v130h125v-130h-125z" />
    <glyph glyph-name="bar" unicode="|" horiz-adv-x="375" 
d="M0 780h125v-910h-125v910z" />
    <glyph glyph-name="braceright" unicode="}" horiz-adv-x="625" 
d="M0 650v130h125v-130h-125zM250 260v130h125v-130h-125zM125 390v260h125v-260h-125zM125 0v260h125v-260h-125zM0 -130v130h125v-130h-125z" />
    <glyph glyph-name="asciitilde" unicode="~" 
 />
    <glyph glyph-name="Adieresis" 
 />
    <glyph glyph-name="Adieresis" unicode="&#xc4;" 
 />
    <glyph glyph-name="Aring" 
 />
    <glyph glyph-name="Aring" unicode="&#xc5;" 
 />
    <glyph glyph-name="Ccedilla" 
 />
    <glyph glyph-name="Ccedilla" unicode="&#xc7;" 
 />
    <glyph glyph-name="Eacute" 
 />
    <glyph glyph-name="Eacute" unicode="&#xc9;" 
 />
    <glyph glyph-name="Ntilde" 
 />
    <glyph glyph-name="Ntilde" unicode="&#xd1;" 
 />
    <glyph glyph-name="Odieresis" unicode="&#x85;" 
 />
    <glyph glyph-name="Odieresis" unicode="&#xd6;" 
 />
    <glyph glyph-name="Udieresis" 
 />
    <glyph glyph-name="Udieresis" unicode="&#xdc;" 
 />
    <glyph glyph-name="aacute" 
 />
    <glyph glyph-name="aacute" unicode="&#xe1;" 
 />
    <glyph glyph-name="agrave" 
 />
    <glyph glyph-name="agrave" unicode="&#xe0;" 
 />
    <glyph glyph-name="acircumflex" 
 />
    <glyph glyph-name="acircumflex" unicode="&#xe2;" 
 />
    <glyph glyph-name="adieresis" 
 />
    <glyph glyph-name="adieresis" unicode="&#xe4;" 
 />
    <glyph glyph-name="atilde" 
 />
    <glyph glyph-name="atilde" unicode="&#xe3;" 
 />
    <glyph glyph-name="aring" 
 />
    <glyph glyph-name="aring" unicode="&#xe5;" 
 />
    <glyph glyph-name="ccedilla" 
 />
    <glyph glyph-name="ccedilla" unicode="&#xe7;" 
 />
    <glyph glyph-name="eacute" 
 />
    <glyph glyph-name="eacute" unicode="&#xe9;" 
 />
    <glyph glyph-name="egrave" 
 />
    <glyph glyph-name="egrave" unicode="&#xe8;" 
 />
    <glyph glyph-name="ecircumflex" 
 />
    <glyph glyph-name="ecircumflex" unicode="&#xea;" 
 />
    <glyph glyph-name="edieresis" 
 />
    <glyph glyph-name="edieresis" unicode="&#xeb;" 
 />
    <glyph glyph-name="iacute" 
 />
    <glyph glyph-name="iacute" unicode="&#xed;" 
 />
    <glyph glyph-name="igrave" 
 />
    <glyph glyph-name="igrave" unicode="&#xec;" 
 />
    <glyph glyph-name="icircumflex" 
 />
    <glyph glyph-name="icircumflex" unicode="&#xee;" 
 />
    <glyph glyph-name="idieresis" horiz-adv-x="750" 
 />
    <glyph glyph-name="idieresis" unicode="&#xef;" horiz-adv-x="750" 
 />
    <glyph glyph-name="ntilde" 
 />
    <glyph glyph-name="ntilde" unicode="&#xf1;" 
 />
    <glyph glyph-name="oacute" 
 />
    <glyph glyph-name="oacute" unicode="&#xf3;" 
 />
    <glyph glyph-name="ograve" 
 />
    <glyph glyph-name="ograve" unicode="&#xf2;" 
 />
    <glyph glyph-name="ocircumflex" 
 />
    <glyph glyph-name="ocircumflex" unicode="&#xf4;" 
 />
    <glyph glyph-name="odieresis" 
 />
    <glyph glyph-name="odieresis" unicode="&#xf6;" 
 />
    <glyph glyph-name="otilde" 
 />
    <glyph glyph-name="otilde" unicode="&#xf5;" 
 />
    <glyph glyph-name="uacute" 
 />
    <glyph glyph-name="uacute" unicode="&#xfa;" 
 />
    <glyph glyph-name="ugrave" 
 />
    <glyph glyph-name="ugrave" unicode="&#xf9;" 
 />
    <glyph glyph-name="ucircumflex" 
 />
    <glyph glyph-name="ucircumflex" unicode="&#xfb;" 
 />
    <glyph glyph-name="udieresis" 
 />
    <glyph glyph-name="udieresis" unicode="&#xfc;" 
 />
    <glyph glyph-name="dagger" unicode="&#xa0;" 
 />
    <glyph glyph-name="dagger" unicode="&#x2020;" 
 />
    <glyph glyph-name="degree" unicode="&#xa1;" 
 />
    <glyph glyph-name="degree" unicode="&#xb0;" 
 />
    <glyph glyph-name="cent" unicode="&#xa2;" 
 />
    <glyph glyph-name="sterling" unicode="&#xa3;" 
 />
    <glyph glyph-name="section" unicode="&#xa4;" 
 />
    <glyph glyph-name="section" unicode="&#xa7;" 
 />
    <glyph glyph-name="bullet" unicode="&#xa5;" 
 />
    <glyph glyph-name="bullet" unicode="&#x2022;" 
 />
    <glyph glyph-name="paragraph" unicode="&#xa6;" 
 />
    <glyph glyph-name="paragraph" unicode="&#xb6;" 
 />
    <glyph glyph-name="germandbls" unicode="&#xa7;" 
 />
    <glyph glyph-name="germandbls" unicode="&#xdf;" 
 />
    <glyph glyph-name="registered" unicode="&#xa8;" 
 />
    <glyph glyph-name="registered" unicode="&#xae;" 
 />
    <glyph glyph-name="copyright" unicode="&#xa9;" 
 />
    <glyph glyph-name="trademark" unicode="&#xaa;" 
 />
    <glyph glyph-name="trademark" unicode="&#x2122;" 
 />
    <glyph glyph-name="acute" unicode="&#xab;" 
 />
    <glyph glyph-name="acute" unicode="&#xb4;" 
 />
    <glyph glyph-name="dieresis" unicode="&#xac;" 
 />
    <glyph glyph-name="dieresis" unicode="&#xa8;" 
 />
    <glyph glyph-name="notequal" unicode="&#xad;" 
 />
    <glyph glyph-name="notequal" unicode="&#x2260;" 
 />
    <glyph glyph-name="AE" unicode="&#xae;" 
 />
    <glyph glyph-name="AE" unicode="&#xc6;" 
 />
    <glyph glyph-name="Oslash" unicode="&#xaf;" 
 />
    <glyph glyph-name="Oslash" unicode="&#xd8;" 
 />
    <glyph glyph-name="infinity" unicode="&#xb0;" 
 />
    <glyph glyph-name="infinity" unicode="&#x221e;" 
 />
    <glyph glyph-name="plusminus" unicode="&#xb1;" 
 />
    <glyph glyph-name="lessequal" unicode="&#xb2;" 
 />
    <glyph glyph-name="lessequal" unicode="&#x2264;" 
 />
    <glyph glyph-name="greaterequal" unicode="&#xb3;" 
 />
    <glyph glyph-name="greaterequal" unicode="&#x2265;" 
 />
    <glyph glyph-name="yen" unicode="&#xb4;" 
 />
    <glyph glyph-name="yen" unicode="&#xa5;" 
 />
    <glyph glyph-name="mu" unicode="&#xb5;" 
 />
    <glyph glyph-name="partialdiff" unicode="&#xb6;" 
 />
    <glyph glyph-name="partialdiff" unicode="&#x2202;" 
 />
    <glyph glyph-name="summation" unicode="&#xb7;" 
 />
    <glyph glyph-name="summation" unicode="&#x2211;" 
 />
    <glyph glyph-name="product" unicode="&#xb8;" 
 />
    <glyph glyph-name="product" unicode="&#x220f;" 
 />
    <glyph glyph-name="pi" unicode="&#xb9;" 
 />
    <glyph glyph-name="pi" unicode="&#x3c0;" 
 />
    <glyph glyph-name="integral" unicode="&#xba;" 
 />
    <glyph glyph-name="integral" unicode="&#x222b;" 
 />
    <glyph glyph-name="ordfeminine" unicode="&#xbb;" 
 />
    <glyph glyph-name="ordfeminine" unicode="&#xaa;" 
 />
    <glyph glyph-name="ordmasculine" unicode="&#xbc;" 
 />
    <glyph glyph-name="ordmasculine" unicode="&#xba;" 
 />
    <glyph glyph-name="ohm" unicode="&#xbd;" 
 />
    <glyph glyph-name="ohm" unicode="&#x3a9;" 
 />
    <glyph glyph-name="ae" unicode="&#xbe;" 
 />
    <glyph glyph-name="ae" unicode="&#xe6;" 
 />
    <glyph glyph-name="oslash" unicode="&#xbf;" 
 />
    <glyph glyph-name="oslash" unicode="&#xf8;" 
 />
    <glyph glyph-name="questiondown" unicode="&#xc0;" 
 />
    <glyph glyph-name="questiondown" unicode="&#xbf;" 
 />
    <glyph glyph-name="exclamdown" unicode="&#xc1;" 
 />
    <glyph glyph-name="exclamdown" unicode="&#xa1;" 
 />
    <glyph glyph-name="logicalnot" unicode="&#xc2;" 
 />
    <glyph glyph-name="logicalnot" unicode="&#xac;" 
 />
    <glyph glyph-name="radical" unicode="&#xc3;" 
 />
    <glyph glyph-name="radical" unicode="&#x221a;" 
 />
    <glyph glyph-name="florin" unicode="&#xc4;" 
 />
    <glyph glyph-name="florin" unicode="&#x192;" 
 />
    <glyph glyph-name="approxequal" unicode="&#xc5;" 
 />
    <glyph glyph-name="approxequal" unicode="&#x2248;" 
 />
    <glyph glyph-name="Delta" unicode="&#xc6;" 
 />
    <glyph glyph-name="Delta" unicode="&#x394;" 
 />
    <glyph glyph-name="guillemotleft" unicode="&#xc7;" 
 />
    <glyph glyph-name="guillemotleft" unicode="&#xab;" 
 />
    <glyph glyph-name="guillemotright" unicode="&#xc8;" 
 />
    <glyph glyph-name="guillemotright" unicode="&#xbb;" 
 />
    <glyph glyph-name="ellipsis" unicode="&#xc9;" 
 />
    <glyph glyph-name="ellipsis" unicode="&#x2026;" 
 />
    <glyph glyph-name="nonbreakingspace" 
 />
    <glyph glyph-name="Agrave" unicode="&#xcb;" 
 />
    <glyph glyph-name="Agrave" unicode="&#xc0;" 
 />
    <glyph glyph-name="Atilde" unicode="&#xcc;" 
 />
    <glyph glyph-name="Atilde" unicode="&#xc3;" 
 />
    <glyph glyph-name="Otilde" unicode="&#xcd;" 
 />
    <glyph glyph-name="Otilde" unicode="&#xd5;" 
 />
    <glyph glyph-name="OE" unicode="&#xce;" 
 />
    <glyph glyph-name="OE" unicode="&#x152;" 
 />
    <glyph glyph-name="oe" unicode="&#xcf;" 
 />
    <glyph glyph-name="oe" unicode="&#x153;" 
 />
    <glyph glyph-name="endash" unicode="&#xd0;" 
 />
    <glyph glyph-name="endash" unicode="&#x2013;" 
 />
    <glyph glyph-name="emdash" unicode="&#xd1;" 
 />
    <glyph glyph-name="emdash" unicode="&#x2014;" 
 />
    <glyph glyph-name="quotedblleft" unicode="&#xd2;" 
 />
    <glyph glyph-name="quotedblleft" unicode="&#x201c;" 
 />
    <glyph glyph-name="quotedblright" unicode="&#xd3;" 
 />
    <glyph glyph-name="quotedblright" unicode="&#x201d;" 
 />
    <glyph glyph-name="quoteleft" unicode="&#xd4;" 
 />
    <glyph glyph-name="quoteleft" unicode="&#x2018;" 
 />
    <glyph glyph-name="quoteright" unicode="&#xd5;" 
 />
    <glyph glyph-name="quoteright" unicode="&#x2019;" 
 />
    <glyph glyph-name="divide" unicode="&#xd6;" 
 />
    <glyph glyph-name="divide" unicode="&#xf7;" 
 />
    <glyph glyph-name="lozenge" unicode="&#xd7;" 
 />
    <glyph glyph-name="lozenge" unicode="&#x25ca;" 
 />
    <glyph glyph-name="ydieresis" unicode="&#xd8;" 
 />
    <glyph glyph-name="ydieresis" unicode="&#xff;" 
 />
    <glyph glyph-name="Ydieresis" unicode="&#xd9;" 
 />
    <glyph glyph-name="Ydieresis" unicode="&#x178;" 
 />
    <glyph glyph-name="fraction" unicode="&#xda;" 
 />
    <glyph glyph-name="fraction" unicode="&#x2044;" 
 />
    <glyph glyph-name="currency" unicode="&#xdb;" 
 />
    <glyph glyph-name="currency" unicode="&#x20ac;" 
 />
    <glyph glyph-name="guilsinglleft" unicode="&#xdc;" 
 />
    <glyph glyph-name="guilsinglleft" unicode="&#x2039;" 
 />
    <glyph glyph-name="guilsinglright" unicode="&#xdd;" 
 />
    <glyph glyph-name="guilsinglright" unicode="&#x203a;" 
 />
    <glyph glyph-name="fi" unicode="&#xde;" 
 />
    <glyph glyph-name="fi" unicode="&#xfb01;" 
 />
    <glyph glyph-name="fl" unicode="&#xdf;" 
 />
    <glyph glyph-name="fl" unicode="&#xfb02;" 
 />
    <glyph glyph-name="daggerdbl" unicode="&#xe0;" 
 />
    <glyph glyph-name="daggerdbl" unicode="&#x2021;" 
 />
    <glyph glyph-name="periodcentered" unicode="&#xe1;" 
 />
    <glyph glyph-name="periodcentered" unicode="&#xb7;" 
 />
    <glyph glyph-name="quotesinglbase" unicode="&#xe2;" 
 />
    <glyph glyph-name="quotesinglbase" unicode="&#x201a;" 
 />
    <glyph glyph-name="quotedblbase" unicode="&#xe3;" 
 />
    <glyph glyph-name="quotedblbase" unicode="&#x201e;" 
 />
    <glyph glyph-name="perthousand" unicode="&#xe4;" 
 />
    <glyph glyph-name="perthousand" unicode="&#x2030;" 
 />
    <glyph glyph-name="Acircumflex" unicode="&#xe5;" 
 />
    <glyph glyph-name="Acircumflex" unicode="&#xc2;" 
 />
    <glyph glyph-name="Ecircumflex" unicode="&#xe6;" 
 />
    <glyph glyph-name="Ecircumflex" unicode="&#xca;" 
 />
    <glyph glyph-name="Aacute" unicode="&#xe7;" 
 />
    <glyph glyph-name="Aacute" unicode="&#xc1;" 
 />
    <glyph glyph-name="Edieresis" unicode="&#xe8;" 
 />
    <glyph glyph-name="Edieresis" unicode="&#xcb;" 
 />
    <glyph glyph-name="Egrave" unicode="&#xe9;" 
 />
    <glyph glyph-name="Egrave" unicode="&#xc8;" 
 />
    <glyph glyph-name="Iacute" unicode="&#xea;" 
 />
    <glyph glyph-name="Iacute" unicode="&#xcd;" 
 />
    <glyph glyph-name="Icircumflex" unicode="&#xeb;" 
 />
    <glyph glyph-name="Icircumflex" unicode="&#xce;" 
 />
    <glyph glyph-name="Idieresis" unicode="&#xec;" 
 />
    <glyph glyph-name="Idieresis" unicode="&#xcf;" 
 />
    <glyph glyph-name="Igrave" unicode="&#xed;" 
 />
    <glyph glyph-name="Igrave" unicode="&#xcc;" 
 />
    <glyph glyph-name="Oacute" unicode="&#xee;" 
 />
    <glyph glyph-name="Oacute" unicode="&#xd3;" 
 />
    <glyph glyph-name="Ocircumflex" unicode="&#xef;" 
 />
    <glyph glyph-name="Ocircumflex" unicode="&#xd4;" 
 />
    <glyph glyph-name="apple" unicode="&#xf0;" 
 />
    <glyph glyph-name="apple" unicode="&#xe01e;" 
 />
    <glyph glyph-name="Ograve" unicode="&#xf1;" 
 />
    <glyph glyph-name="Ograve" unicode="&#xd2;" 
 />
    <glyph glyph-name="Uacute" unicode="&#xf2;" 
 />
    <glyph glyph-name="Uacute" unicode="&#xda;" 
 />
    <glyph glyph-name="Ucircumflex" unicode="&#xf3;" 
 />
    <glyph glyph-name="Ucircumflex" unicode="&#xdb;" 
 />
    <glyph glyph-name="Ugrave" unicode="&#xf4;" 
 />
    <glyph glyph-name="Ugrave" unicode="&#xd9;" 
 />
    <glyph glyph-name="dotlessi" unicode="&#xf5;" 
 />
    <glyph glyph-name="dotlessi" unicode="&#x131;" 
 />
    <glyph glyph-name="circumflex" unicode="&#xf6;" 
 />
    <glyph glyph-name="circumflex" unicode="&#x2c6;" 
 />
    <glyph glyph-name="tilde" unicode="&#xf7;" 
 />
    <glyph glyph-name="tilde" unicode="&#x2dc;" 
 />
    <glyph glyph-name="macron" unicode="&#xf8;" 
 />
    <glyph glyph-name="macron" unicode="&#xaf;" 
 />
    <glyph glyph-name="breve" unicode="&#xf9;" 
 />
    <glyph glyph-name="breve" unicode="&#x2d8;" 
 />
    <glyph glyph-name="dotaccent" unicode="&#xfa;" 
 />
    <glyph glyph-name="dotaccent" unicode="&#x2d9;" 
 />
    <glyph glyph-name="ring" unicode="&#xfb;" 
 />
    <glyph glyph-name="ring" unicode="&#x2da;" 
 />
    <glyph glyph-name="cedilla" unicode="&#xfc;" 
 />
    <glyph glyph-name="cedilla" unicode="&#xb8;" 
 />
    <glyph glyph-name="hungarumlaut" unicode="&#xfd;" 
 />
    <glyph glyph-name="hungarumlaut" unicode="&#x2dd;" 
 />
    <glyph glyph-name="ogonek" unicode="&#xfe;" 
 />
    <glyph glyph-name="ogonek" unicode="&#x2db;" 
 />
    <glyph glyph-name="caron" unicode="&#xff;" 
 />
    <glyph glyph-name="caron" unicode="&#x2c7;" 
 />
  </font>
</defs>
</svg>
